 <svg  version="1.0" xmlns="http://www.w3.org/2000/svg"  width="34" height="34" viewBox="0 0 269.000000 227.000000"  preserveAspectRatio="xMidYMid meet">  <g transform="translate(0.000000,227.000000) scale(0.100000,-0.100000)" fill="#ee6911" stroke="none"> <path d="M503 1883 c-38 -34 -55 -85 -54 -166 0 -53 6 -102 11 -102 1 0 3 -8 5 -17 7 -39 38 -55 132 -66 101 -12 179 -40 215 -79 21 -23 23 -33 22 -126 0 -94 -4 -113 -48 -247 -27 -80 -50 -149 -52 -155 -3 -6 47 -9 142 -7 l146 3 -6 77 c-18 240 -19 272 -5 273 38 2 74 11 80 20 3 6 17 59 30 120 l23 109 31 -5 c16 -2 70 -9 119 -15 50 -6 94 -14 98 -16 4 -3 8 92 8 210 l0 216 -433 0 -433 0 -31 -27z m52 -163 c0 -147 -4 -159 -41 -119 -29 33 -33 182 -5 227 39 61 46 44 46 -108z m795 -20 l0 -160 -32 1 c-31 0 -86 17 -62 18 6 1 23 13 38 27 25 25 26 32 26 131 0 57 -5 113 -10 124 -9 16 -7 19 15 19 l25 0 0 -160z m-70 20 l0 -120 -350 0 -350 0 0 120 0 120 350 0 350 0 0 -120z m-158 -192 c-11 -18 -25 -53 -32 -78 -6 -25 -16 -62 -21 -83 -8 -30 -18 -42 -44 -53 -61 -25 -65 -39 -58 -206 l6 -148 -86 0 c-47 0 -88 4 -91 8 -3 4 6 39 20 78 73 210 83 349 29 420 -15 20 -41 44 -57 53 -74 40 -74 40 145 41 l209 0 -20 -32z"/> <path d="M658 1763 c-2 -5 -4 -25 -4 -46 l1 -38 278 -2 277 -2 0 48 0 47 -274 0 c-151 0 -276 -3 -278 -7z"/> <path d="M1470 1715 l0 -196 56 3 56 3 1 193 2 192 -57 0 -58 0 0 -195z m70 -1 c0 -112 -3 -145 -12 -142 -9 3 -14 41 -16 133 -3 132 0 155 18 155 6 0 10 -52 10 -146z"/> <path d="M1659 1840 c0 -3 -1 -57 -1 -120 l0 -114 56 -1 56 -1 0 121 0 121 -55 0 c-30 0 -55 -3 -56 -6z m69 -120 c-2 -40 -8 -65 -15 -68 -10 -3 -13 15 -13 66 0 38 3 72 7 76 15 15 24 -15 21 -74z"/> <path d="M1842 1726 c3 -93 5 -110 18 -108 38 9 52 12 73 18 12 3 29 7 37 9 8 2 23 4 33 4 16 1 18 10 15 73 l-3 72 -88 22 -88 22 3 -112z m131 25 c5 -5 7 -19 5 -32 -4 -31 -74 -61 -89 -38 -12 20 -11 73 2 86 12 12 65 1 82 -16z"/> <path d="M2090 1735 l0 -35 105 0 105 0 0 35 0 35 -105 0 -105 0 0 -35z"/> <path d="M1194 1413 c-3 -16 -10 -44 -15 -63 -14 -53 -12 -56 25 -52 31 4 34 7 33 38 -1 20 8 46 21 63 12 17 22 31 22 33 0 2 -18 4 -40 6 -36 2 -40 0 -46 -25z"/> <path d="M720 783 l0 -63 -73 0 -73 0 -37 -55 c-20 -30 -37 -56 -37 -58 0 -1 215 -2 479 -2 520 0 489 -4 453 53 -8 12 -11 22 -8 22 4 0 2 9 -4 20 -10 19 -21 20 -205 20 l-195 0 0 63 0 62 -150 0 -150 0 0 -62z m263 -24 c9 -71 15 -73 214 -79 129 -4 177 -8 181 -17 3 -10 -80 -13 -392 -13 -226 0 -396 4 -396 9 0 13 27 21 75 21 57 0 85 23 92 78 l6 42 107 0 107 0 6 -41z"/> <path d="M470 410 l0 -120 463 0 464 0 28 107 c15 60 30 114 32 121 4 9 -98 12 -491 12 l-496 0 0 -120z m930 64 c0 -37 -33 -125 -50 -134 -20 -11 -797 -14 -824 -4 -12 5 -16 21 -16 73 0 37 3 71 7 74 3 4 204 7 445 7 394 0 438 -2 438 -16z"/> </g> </svg> 